<svg width="1770" height="225" viewBox="0 0 1770 225" fill="none" xmlns="http://www.w3.org/2000/svg">
<rect width="225" height="225" rx="20" fill="#FF8000"/>
<path d="M114.257 195.606L116.705 196.634C124.524 199.822 132.536 202.635 140.704 205.059L141.282 205.017C134.426 197.146 129.794 188.091 127.757 178.58C127.198 174.482 127.86 170.367 129.682 166.612C131.404 162.732 133.899 159.147 137.062 156.01C140.326 152.819 144.013 149.608 148.124 146.376C152.22 143.134 156.273 139.586 160.316 135.977C164.253 132.353 167.855 128.477 171.095 124.383C174.433 120.021 176.823 115.173 178.157 110.057C179.686 104.28 179.995 98.2848 179.071 92.3439C178.098 84.7757 175.769 77.3362 172.165 70.2817C168.901 63.9322 164.562 57.9913 159.289 52.651C153.944 47.461 147.843 42.8606 141.14 38.967C134.387 34.8872 127.271 31.2675 119.862 28.144C112.013 25.0288 103.974 22.2899 95.7856 19.941L95.5326 19.9595C102.236 27.9059 106.754 36.9775 108.742 46.4819C109.354 50.5624 108.754 54.6715 106.997 58.4358C105.202 62.3139 102.63 65.8835 99.3914 68.9931C96.1243 72.1634 92.4372 75.3748 88.33 78.6273C84.2334 81.8687 80.1809 85.4165 76.1373 89.0256C72.201 92.6502 68.5983 96.5258 65.3587 100.62C61.9544 104.975 59.503 109.829 58.1159 114.959C56.5243 120.732 56.1538 126.731 57.0212 132.686C58.038 140.259 60.4285 147.697 64.1081 154.734C67.3719 161.084 71.7106 167.025 76.9841 172.365C82.3382 177.547 88.4383 182.147 95.133 186.049C101.142 189.635 107.428 192.868 113.945 195.722" fill="white"/>
<path d="M74.1346 74.8391C72.0365 73.5547 70.3193 71.8567 69.1239 69.8845C68.1115 68.4113 67.5098 66.7532 67.3666 65.0423C67.2235 63.3314 67.5429 61.6152 68.2993 60.0305C69.3354 57.9257 70.8949 56.0458 72.8661 54.5254C75.1036 55.6521 76.9539 57.277 78.2256 59.2322C79.2324 60.8171 79.8277 62.5739 79.9698 64.3795C80.1057 66.1715 79.7807 67.9673 79.0184 69.6368C77.9448 71.7129 76.2604 73.5071 74.1346 74.8391Z" fill="white"/>
<path d="M285.24 123.264V106.88H302.52C306.275 106.88 309.133 105.984 311.096 104.192C313.144 102.315 314.168 99.7973 314.168 96.64C314.168 93.568 313.144 91.0933 311.096 89.216C309.133 87.2533 306.275 86.272 302.52 86.272H285.24V69.248H305.72C311.864 69.248 317.24 70.4 321.848 72.704C326.541 75.008 330.211 78.1653 332.856 82.176C335.501 86.1867 336.824 90.88 336.824 96.256C336.824 101.632 335.459 106.368 332.728 110.464C330.083 114.475 326.371 117.632 321.592 119.936C316.813 122.155 311.224 123.264 304.824 123.264H285.24ZM267.064 160V69.248H289.976V160H267.064ZM316.216 160L289.848 121.088L310.456 116.096L342.712 160H316.216ZM393.968 161.408C387.056 161.408 380.656 160.256 374.768 157.952C368.965 155.563 363.845 152.235 359.408 147.968C355.056 143.701 351.643 138.752 349.168 133.12C346.779 127.403 345.584 121.216 345.584 114.56C345.584 107.819 346.821 101.632 349.296 96C351.856 90.2827 355.397 85.3333 359.92 81.152C364.443 76.8853 369.691 73.6 375.664 71.296C381.723 68.9067 388.165 67.712 394.992 67.712C403.099 67.712 410.437 69.1627 417.008 72.064C423.579 74.88 428.912 78.8053 433.008 83.84L417.648 99.2C414.576 95.5307 411.205 92.8 407.536 91.008C403.867 89.1307 399.6 88.192 394.736 88.192C389.787 88.192 385.349 89.3013 381.424 91.52C377.584 93.6533 374.512 96.6827 372.208 100.608C369.904 104.533 368.752 109.141 368.752 114.432C368.752 119.723 369.819 124.373 371.952 128.384C374.171 132.395 377.157 135.509 380.912 137.728C384.752 139.947 389.147 141.056 394.096 141.056C399.045 141.056 403.227 140.117 406.64 138.24C410.139 136.363 412.784 133.632 414.576 130.048C416.453 126.464 417.392 122.197 417.392 117.248L432.88 127.232L391.536 126.208V107.52H440.432V110.976C440.432 121.813 438.469 130.987 434.544 138.496C430.619 146.005 425.157 151.723 418.16 155.648C411.248 159.488 403.184 161.408 393.968 161.408ZM472.089 160L443.289 69.248H465.945L486.681 139.136H476.825L497.305 69.248H515.609L536.089 139.136H526.361L547.097 69.248H569.625L540.697 160H522.265L501.785 90.24H511.001L490.649 160H472.089ZM602.814 160V69.248H625.726V160H602.814ZM658.366 160V69.248H681.278V160H658.366ZM615.87 123.136V103.936H666.686V123.136H615.87ZM727.519 161.408C720.522 161.408 714.335 160.043 708.959 157.312C703.583 154.496 699.359 150.613 696.287 145.664C693.215 140.715 691.679 135.04 691.679 128.64C691.679 122.325 693.172 116.736 696.159 111.872C699.146 106.923 703.199 103.04 708.319 100.224C713.524 97.3227 719.37 95.872 725.855 95.872C732.17 95.872 737.759 97.2373 742.623 99.968C747.572 102.613 751.412 106.325 754.143 111.104C756.959 115.797 758.367 121.173 758.367 127.232C758.367 128.512 758.282 129.835 758.111 131.2C758.026 132.48 757.77 133.973 757.343 135.68L702.175 135.936V121.6L748.511 121.216L738.527 127.488C738.442 123.989 737.93 121.131 736.991 118.912C736.052 116.608 734.687 114.859 732.895 113.664C731.103 112.469 728.842 111.872 726.111 111.872C723.295 111.872 720.863 112.555 718.815 113.92C716.767 115.285 715.188 117.205 714.079 119.68C712.97 122.155 712.415 125.141 712.415 128.64C712.415 132.224 713.012 135.296 714.207 137.856C715.402 140.331 717.108 142.208 719.327 143.488C721.546 144.768 724.276 145.408 727.519 145.408C730.591 145.408 733.279 144.896 735.583 143.872C737.972 142.848 740.106 141.269 741.983 139.136L753.631 150.784C750.559 154.283 746.804 156.928 742.367 158.72C738.015 160.512 733.066 161.408 727.519 161.408ZM792.89 161.28C787.087 161.28 781.925 159.872 777.402 157.056C772.879 154.24 769.338 150.4 766.778 145.536C764.218 140.587 762.938 134.997 762.938 128.768C762.938 122.453 764.218 116.821 766.778 111.872C769.338 106.923 772.879 103.083 777.402 100.352C781.925 97.536 787.087 96.128 792.89 96.128C796.815 96.128 800.399 96.8533 803.642 98.304C806.885 99.6693 809.53 101.632 811.578 104.192C813.711 106.752 814.991 109.653 815.418 112.896V144.384C814.991 147.712 813.711 150.656 811.578 153.216C809.53 155.691 806.885 157.653 803.642 159.104C800.399 160.555 796.815 161.28 792.89 161.28ZM797.626 141.44C801.295 141.44 804.239 140.245 806.458 137.856C808.762 135.467 809.914 132.395 809.914 128.64C809.914 126.165 809.402 123.989 808.378 122.112C807.354 120.235 805.903 118.741 804.026 117.632C802.234 116.523 800.143 115.968 797.754 115.968C795.365 115.968 793.231 116.523 791.354 117.632C789.562 118.741 788.111 120.277 787.002 122.24C785.978 124.117 785.466 126.251 785.466 128.64C785.466 131.115 785.978 133.333 787.002 135.296C788.026 137.173 789.477 138.667 791.354 139.776C793.231 140.885 795.322 141.44 797.626 141.44ZM809.018 160V143.232L812.218 127.872L809.018 112.768V97.408H830.906V160H809.018ZM852.479 160V71.552H874.751V160H852.479ZM838.655 115.968V97.408H888.575V115.968H838.655ZM896.275 160V97.408H918.675V160H896.275ZM907.411 90.112C904.083 90.112 901.31 89.0027 899.091 86.784C896.872 84.48 895.763 81.6213 895.763 78.208C895.763 74.88 896.872 72.064 899.091 69.76C901.31 67.456 904.083 66.304 907.411 66.304C910.91 66.304 913.726 67.456 915.859 69.76C918.078 72.064 919.187 74.88 919.187 78.208C919.187 81.6213 918.078 84.48 915.859 86.784C913.726 89.0027 910.91 90.112 907.411 90.112ZM972.229 160V124.672C972.229 121.771 971.376 119.509 969.669 117.888C967.962 116.181 965.786 115.328 963.141 115.328C961.349 115.328 959.728 115.712 958.277 116.48C956.912 117.248 955.845 118.315 955.077 119.68C954.309 121.045 953.925 122.709 953.925 124.672L945.221 120.576C945.221 115.541 946.33 111.232 948.549 107.648C950.768 103.979 953.797 101.163 957.637 99.2C961.562 97.152 966 96.128 970.949 96.128C975.472 96.128 979.482 97.1947 982.981 99.328C986.565 101.376 989.381 104.149 991.429 107.648C993.477 111.147 994.501 115.115 994.501 119.552V160H972.229ZM931.653 160V97.408H953.925V160H931.653ZM1032.9 188.416C1025.99 188.416 1019.85 187.221 1014.47 184.832C1009.18 182.528 1005.04 179.243 1002.05 174.976L1015.49 161.664C1017.63 163.968 1019.97 165.76 1022.53 167.04C1025.09 168.405 1028.21 169.088 1031.88 169.088C1036.32 169.088 1039.81 167.979 1042.37 165.76C1045.02 163.627 1046.34 160.512 1046.34 156.416V140.16L1049.93 126.592L1046.73 113.152V97.408H1068.61V155.648C1068.61 162.304 1067.04 168.064 1063.88 172.928C1060.81 177.877 1056.58 181.675 1051.21 184.32C1045.83 187.051 1039.73 188.416 1032.9 188.416ZM1031.88 157.696C1026.08 157.696 1020.91 156.373 1016.39 153.728C1011.95 150.997 1008.45 147.285 1005.89 142.592C1003.33 137.899 1002.05 132.651 1002.05 126.848C1002.05 121.045 1003.33 115.84 1005.89 111.232C1008.45 106.624 1011.95 102.955 1016.39 100.224C1020.91 97.4933 1026.08 96.128 1031.88 96.128C1035.8 96.128 1039.39 96.8533 1042.63 98.304C1045.96 99.6693 1048.65 101.632 1050.69 104.192C1052.74 106.667 1054.02 109.568 1054.53 112.896V140.928C1054.02 144.256 1052.7 147.2 1050.57 149.76C1048.52 152.235 1045.87 154.197 1042.63 155.648C1039.39 157.013 1035.8 157.696 1031.88 157.696ZM1035.97 138.368C1038.36 138.368 1040.41 137.856 1042.12 136.832C1043.91 135.723 1045.28 134.315 1046.21 132.608C1047.15 130.816 1047.62 128.896 1047.62 126.848C1047.62 124.715 1047.15 122.795 1046.21 121.088C1045.28 119.381 1043.95 118.016 1042.25 116.992C1040.54 115.883 1038.49 115.328 1036.1 115.328C1033.8 115.328 1031.75 115.883 1029.96 116.992C1028.25 118.016 1026.93 119.424 1025.99 121.216C1025.05 122.923 1024.58 124.8 1024.58 126.848C1024.58 128.811 1025.05 130.688 1025.99 132.48C1026.93 134.187 1028.25 135.595 1029.96 136.704C1031.66 137.813 1033.67 138.368 1035.97 138.368ZM1162.5 160L1121.54 114.816C1118.38 111.232 1116.08 107.819 1114.62 104.576C1113.26 101.333 1112.58 97.792 1112.58 93.952C1112.58 89.344 1113.77 85.0773 1116.16 81.152C1118.55 77.1413 1121.84 73.8987 1126.02 71.424C1130.2 68.9493 1135.06 67.712 1140.61 67.712C1144.96 67.712 1148.8 68.352 1152.13 69.632C1155.54 70.8267 1158.44 72.3627 1160.83 74.24C1163.22 76.1173 1165.01 78.0373 1166.21 80L1151.75 94.208C1150.12 91.9893 1148.46 90.4107 1146.75 89.472C1145.05 88.5333 1143.17 88.064 1141.12 88.064C1138.9 88.064 1137.07 88.704 1135.62 89.984C1134.17 91.264 1133.44 92.8 1133.44 94.592C1133.44 96.0427 1133.78 97.408 1134.47 98.688C1135.15 99.8827 1136.09 101.205 1137.28 102.656L1188.48 160H1162.5ZM1133.44 161.408C1127.3 161.408 1121.92 160.171 1117.31 157.696C1112.79 155.221 1109.25 151.893 1106.69 147.712C1104.21 143.445 1102.98 138.709 1102.98 133.504C1102.98 127.787 1104.43 122.709 1107.33 118.272C1110.32 113.749 1114.88 110.08 1121.03 107.264L1130.37 122.112C1128.07 122.965 1126.36 124.288 1125.25 126.08C1124.14 127.787 1123.59 129.707 1123.59 131.84C1123.59 133.547 1123.97 135.125 1124.74 136.576C1125.59 138.027 1126.79 139.179 1128.32 140.032C1129.86 140.885 1131.69 141.312 1133.83 141.312C1135.96 141.312 1137.88 140.843 1139.59 139.904C1141.38 138.88 1142.96 137.301 1144.32 135.168L1159.68 150.272C1158.32 151.979 1156.31 153.685 1153.67 155.392C1151.11 157.099 1148.08 158.549 1144.58 159.744C1141.16 160.853 1137.45 161.408 1133.44 161.408ZM1233.37 127.488V110.464H1251.29C1253.5 110.464 1255.51 110.037 1257.3 109.184C1259.18 108.245 1260.67 106.88 1261.78 105.088C1262.89 103.296 1263.45 101.077 1263.45 98.432C1263.45 95.7867 1262.89 93.568 1261.78 91.776C1260.67 89.8987 1259.18 88.5333 1257.3 87.68C1255.51 86.7413 1253.5 86.272 1251.29 86.272H1233.37V69.248H1255.25C1261.06 69.248 1266.3 70.4427 1271 72.832C1275.69 75.136 1279.4 78.464 1282.13 82.816C1284.86 87.0827 1286.23 92.288 1286.23 98.432C1286.23 104.405 1284.86 109.611 1282.13 114.048C1279.4 118.4 1275.69 121.728 1271 124.032C1266.3 126.336 1261.06 127.488 1255.25 127.488H1233.37ZM1215.19 160V69.248H1238.1V160H1215.19ZM1295.53 160V66.688H1317.8V160H1295.53ZM1359.58 161.408C1353.69 161.408 1348.44 160.256 1343.83 157.952C1339.31 155.563 1335.72 152.277 1333.08 148.096C1330.52 143.829 1329.24 139.008 1329.24 133.632V97.408H1351.51V133.632C1351.51 135.339 1351.85 136.832 1352.54 138.112C1353.22 139.392 1354.16 140.373 1355.35 141.056C1356.55 141.739 1357.95 142.08 1359.58 142.08C1361.96 142.08 1363.88 141.312 1365.34 139.776C1366.87 138.24 1367.64 136.192 1367.64 133.632V97.408H1389.91V133.632C1389.91 139.093 1388.63 143.915 1386.07 148.096C1383.51 152.277 1379.93 155.563 1375.32 157.952C1370.8 160.256 1365.55 161.408 1359.58 161.408ZM1401.28 160V97.408H1423.55V160H1401.28ZM1440.57 160V123.776C1440.57 121.131 1439.76 119.083 1438.14 117.632C1436.52 116.096 1434.52 115.328 1432.13 115.328C1430.42 115.328 1428.93 115.669 1427.65 116.352C1426.37 117.035 1425.34 118.016 1424.57 119.296C1423.89 120.491 1423.55 121.984 1423.55 123.776L1414.85 120.32C1414.85 115.285 1415.96 110.976 1418.17 107.392C1420.39 103.808 1423.38 101.035 1427.13 99.072C1430.89 97.1093 1435.16 96.128 1439.93 96.128C1444.2 96.128 1448.04 97.152 1451.45 99.2C1454.95 101.163 1457.73 103.936 1459.77 107.52C1461.82 111.104 1462.85 115.328 1462.85 120.192V160H1440.57ZM1479.87 160V123.776C1479.87 121.131 1479.06 119.083 1477.44 117.632C1475.82 116.096 1473.81 115.328 1471.42 115.328C1469.8 115.328 1468.31 115.669 1466.94 116.352C1465.66 117.035 1464.64 118.016 1463.87 119.296C1463.19 120.491 1462.85 121.984 1462.85 123.776L1449.79 123.136C1449.96 117.504 1451.2 112.683 1453.5 108.672C1455.81 104.661 1458.96 101.589 1462.97 99.456C1467.07 97.2373 1471.68 96.128 1476.8 96.128C1481.66 96.128 1486.01 97.152 1489.85 99.2C1493.69 101.248 1496.68 104.235 1498.81 108.16C1501.03 112 1502.14 116.608 1502.14 121.984V160H1479.87ZM1551.03 161.28C1547.02 161.28 1543.3 160.512 1539.89 158.976C1536.48 157.355 1533.66 155.179 1531.44 152.448C1529.22 149.717 1527.86 146.731 1527.35 143.488V112.896C1527.86 109.653 1529.22 106.752 1531.44 104.192C1533.75 101.632 1536.6 99.6693 1540.02 98.304C1543.43 96.8533 1547.1 96.128 1551.03 96.128C1557.08 96.128 1562.42 97.536 1567.03 100.352C1571.63 103.083 1575.22 106.923 1577.78 111.872C1580.42 116.821 1581.75 122.453 1581.75 128.768C1581.75 134.997 1580.42 140.587 1577.78 145.536C1575.22 150.4 1571.63 154.24 1567.03 157.056C1562.42 159.872 1557.08 161.28 1551.03 161.28ZM1547.06 141.44C1549.45 141.44 1551.54 140.885 1553.33 139.776C1555.21 138.667 1556.66 137.173 1557.68 135.296C1558.71 133.333 1559.22 131.115 1559.22 128.64C1559.22 126.251 1558.71 124.117 1557.68 122.24C1556.66 120.277 1555.21 118.741 1553.33 117.632C1551.45 116.523 1549.32 115.968 1546.93 115.968C1544.54 115.968 1542.41 116.523 1540.53 117.632C1538.74 118.741 1537.33 120.235 1536.31 122.112C1535.28 123.989 1534.77 126.165 1534.77 128.64C1534.77 131.2 1535.28 133.461 1536.31 135.424C1537.33 137.301 1538.78 138.795 1540.66 139.904C1542.54 140.928 1544.67 141.44 1547.06 141.44ZM1513.78 160V66.688H1536.05V112.768L1532.34 127.872L1535.54 143.232V160H1513.78ZM1590.78 160V97.408H1613.18V160H1590.78ZM1601.91 90.112C1598.58 90.112 1595.81 89.0027 1593.59 86.784C1591.37 84.48 1590.26 81.6213 1590.26 78.208C1590.26 74.88 1591.37 72.064 1593.59 69.76C1595.81 67.456 1598.58 66.304 1601.91 66.304C1605.41 66.304 1608.23 67.456 1610.36 69.76C1612.58 72.064 1613.69 74.88 1613.69 78.208C1613.69 81.6213 1612.58 84.48 1610.36 86.784C1608.23 89.0027 1605.41 90.112 1601.91 90.112ZM1666.73 160V124.672C1666.73 121.771 1665.88 119.509 1664.17 117.888C1662.46 116.181 1660.29 115.328 1657.64 115.328C1655.85 115.328 1654.23 115.712 1652.78 116.48C1651.41 117.248 1650.35 118.315 1649.58 119.68C1648.81 121.045 1648.43 122.709 1648.43 124.672L1639.72 120.576C1639.72 115.541 1640.83 111.232 1643.05 107.648C1645.27 103.979 1648.3 101.163 1652.14 99.2C1656.06 97.152 1660.5 96.128 1665.45 96.128C1669.97 96.128 1673.98 97.1947 1677.48 99.328C1681.07 101.376 1683.88 104.149 1685.93 107.648C1687.98 111.147 1689 115.115 1689 119.552V160H1666.73ZM1626.15 160V97.408H1648.43V160H1626.15ZM1727.4 188.416C1720.49 188.416 1714.35 187.221 1708.97 184.832C1703.68 182.528 1699.54 179.243 1696.55 174.976L1709.99 161.664C1712.13 163.968 1714.47 165.76 1717.03 167.04C1719.59 168.405 1722.71 169.088 1726.38 169.088C1730.82 169.088 1734.31 167.979 1736.87 165.76C1739.52 163.627 1740.84 160.512 1740.84 156.416V140.16L1744.43 126.592L1741.23 113.152V97.408H1763.11V155.648C1763.11 162.304 1761.54 168.064 1758.38 172.928C1755.31 177.877 1751.08 181.675 1745.71 184.32C1740.33 187.051 1734.23 188.416 1727.4 188.416ZM1726.38 157.696C1720.58 157.696 1715.41 156.373 1710.89 153.728C1706.45 150.997 1702.95 147.285 1700.39 142.592C1697.83 137.899 1696.55 132.651 1696.55 126.848C1696.55 121.045 1697.83 115.84 1700.39 111.232C1702.95 106.624 1706.45 102.955 1710.89 100.224C1715.41 97.4933 1720.58 96.128 1726.38 96.128C1730.3 96.128 1733.89 96.8533 1737.13 98.304C1740.46 99.6693 1743.15 101.632 1745.19 104.192C1747.24 106.667 1748.52 109.568 1749.03 112.896V140.928C1748.52 144.256 1747.2 147.2 1745.07 149.76C1743.02 152.235 1740.37 154.197 1737.13 155.648C1733.89 157.013 1730.3 157.696 1726.38 157.696ZM1730.47 138.368C1732.86 138.368 1734.91 137.856 1736.62 136.832C1738.41 135.723 1739.78 134.315 1740.71 132.608C1741.65 130.816 1742.12 128.896 1742.12 126.848C1742.12 124.715 1741.65 122.795 1740.71 121.088C1739.78 119.381 1738.45 118.016 1736.75 116.992C1735.04 115.883 1732.99 115.328 1730.6 115.328C1728.3 115.328 1726.25 115.883 1724.46 116.992C1722.75 118.016 1721.43 119.424 1720.49 121.216C1719.55 122.923 1719.08 124.8 1719.08 126.848C1719.08 128.811 1719.55 130.688 1720.49 132.48C1721.43 134.187 1722.75 135.595 1724.46 136.704C1726.16 137.813 1728.17 138.368 1730.47 138.368Z" fill="#242424"/>
</svg>
