<svg width="39" height="56" viewBox="0 0 39 56" fill="none" xmlns="http://www.w3.org/2000/svg">
<mask id="path-1-outside-1_2005_87" maskUnits="userSpaceOnUse" x="-0.121582" y="0.5" width="39" height="55" fill="black">
<rect fill="white" x="-0.121582" y="0.5" width="39" height="55"/>
<path d="M25.9998 46V42H21.9998V46L23.8665 44.25L25.9998 46Z"/>
<path d="M26.9998 36C26.9998 37.6569 25.6567 39 23.9998 39C22.343 39 20.9998 37.6569 20.9998 36C20.9998 34.3431 22.343 33 23.9998 33C25.6567 33 26.9998 34.3431 26.9998 36Z"/>
</mask>
<path d="M20.9998 4.5C22.1044 4.5 22.9998 3.60457 22.9998 2.5C22.9998 1.39543 22.1044 0.5 20.9998 0.5V4.5ZM35.7639 7.09278L33.8283 7.59604L33.8283 7.59605L35.7639 7.09278ZM35.9998 8H37.9998V7.74425L37.9355 7.49673L35.9998 8ZM25.0898 7.50005L23.1214 7.14574L23.1214 7.14575L25.0898 7.50005ZM3.21809 3.93316L4.97388 4.89086L4.97388 4.89086L3.21809 3.93316ZM6.99981 9C6.99981 7.89543 6.10438 7 4.99981 7C3.89524 7 2.99981 7.89543 2.99981 9H6.99981ZM10.4998 14C9.39524 14 8.49981 14.8954 8.49981 16C8.49981 17.1046 9.39524 18 10.4998 18V14ZM9.99981 20.5C8.89524 20.5 7.99981 21.3954 7.99981 22.5C7.99981 23.6046 8.89524 24.5 9.99981 24.5V20.5ZM30.9998 38.5C29.8952 38.5 28.9998 39.3954 28.9998 40.5C28.9998 41.6046 29.8952 42.5 30.9998 42.5V38.5ZM20.9998 0.5H5.6323V4.5H20.9998V0.5ZM5.6323 10H24.4918V6H5.6323V10ZM33.8283 7.59605L34.0642 8.50327L37.9355 7.49673L37.6996 6.58951L33.8283 7.59605ZM33.9998 8V16H37.9998V8H33.9998ZM27.0582 7.85435C27.717 4.19436 32.8925 3.99687 33.8283 7.59604L37.6996 6.58951C35.6846 -1.16058 24.54 -0.735384 23.1214 7.14574L27.0582 7.85435ZM24.4918 10C25.7538 10 26.8346 9.09634 27.0582 7.85435L23.1214 7.14575C23.2408 6.48254 23.818 6 24.4918 6V10ZM1.4623 2.97545C-0.264218 6.14073 2.02677 10 5.6323 10V6C5.06301 6 4.70127 5.39064 4.97388 4.89086L1.4623 2.97545ZM5.6323 0.5C3.89407 0.5 2.29466 1.44946 1.4623 2.97545L4.97388 4.89086C5.10531 4.64991 5.35784 4.5 5.6323 4.5V0.5ZM2.99981 9V38.5H6.99981V9H2.99981ZM7.99981 43.5H14.9998V39.5H7.99981V43.5ZM2.99981 38.5C2.99981 41.2614 5.23839 43.5 7.99981 43.5V39.5C7.44753 39.5 6.99981 39.0523 6.99981 38.5H2.99981ZM10.4998 18H28.9998V14H10.4998V18ZM9.99981 24.5H20.4998V20.5H9.99981V24.5ZM34.4998 23V37.5H38.4998V23H34.4998ZM33.4998 38.5H30.9998V42.5H33.4998V38.5ZM34.4998 37.5C34.4998 38.0523 34.0521 38.5 33.4998 38.5V42.5C36.2612 42.5 38.4998 40.2614 38.4998 37.5H34.4998ZM25.9998 42H29.9998V38H25.9998V42ZM25.9998 46L23.4629 49.0926L29.9998 54.4549V46H25.9998ZM23.8665 44.25L26.4034 41.1574L23.6905 38.932L21.1307 41.3319L23.8665 44.25ZM21.9998 46H17.9998V55.2329L24.7356 48.9181L21.9998 46ZM21.9998 42V38H17.9998V42H21.9998ZM21.9998 42V46H29.9998V42H21.9998ZM28.5367 42.9074L26.4034 41.1574L21.3296 47.3426L23.4629 49.0926L28.5367 42.9074ZM21.1307 41.3319L19.264 43.0819L24.7356 48.9181L26.6022 47.1681L21.1307 41.3319ZM25.9998 46V42H17.9998V46H25.9998ZM21.9998 46H25.9998V38H21.9998V46ZM22.9998 36C22.9998 35.4477 23.4475 35 23.9998 35V43C27.8658 43 30.9998 39.866 30.9998 36H22.9998ZM23.9998 35C24.5521 35 24.9998 35.4477 24.9998 36H16.9998C16.9998 39.866 20.1338 43 23.9998 43V35ZM24.9998 36C24.9998 36.5523 24.5521 37 23.9998 37V29C20.1338 29 16.9998 32.134 16.9998 36H24.9998ZM23.9998 37C23.4475 37 22.9998 36.5523 22.9998 36H30.9998C30.9998 32.134 27.8658 29 23.9998 29V37Z" fill="black" mask="url(#path-1-outside-1_2005_87)"/>
</svg>
